HIERARCHY
ROOT Hips
{
  OFFSET -331.093 83.8371 -317.828
  CHANNELS 6 Xposition Yposition Zposition Zrotation Xrotation Yrotation
  JOINT LeftUpLeg
  {
    OFFSET 8.64259 1.95398 -2.38835
    CHANNELS 3 Zrotation Xrotation Yrotation
    JOINT LeftLeg
    {
      OFFSET 43.7702 0 0
      CHANNELS 3 Zrotation Xrotation Yrotation
      JOINT LeftFoot
      {
        OFFSET 40.6238 0 0
        CHANNELS 3 Zrotation Xrotation Yrotation
        JOINT LeftToeBase
        {
          OFFSET 12.7242 0 0
          CHANNELS 3 Zrotation Xrotation Yrotation
          End Site
          {
            OFFSET 0 0 0
          }
        }
      }
    }
  }
  JOINT RightUpLeg
  {
    OFFSET -8.2249 1.95398 -2.59336
    CHANNELS 3 Zrotation Xrotation Yrotation
    JOINT RightLeg
    {
      OFFSET 43.5653 0 0
      CHANNELS 3 Zrotation Xrotation Yrotation
      JOINT RightFoot
      {
        OFFSET 40.6238 0 0
        CHANNELS 3 Zrotation Xrotation Yrotation
        JOINT RightToeBase
        {
          OFFSET 12.7242 0 0
          CHANNELS 3 Zrotation Xrotation Yrotation
          End Site
          {
            OFFSET 0 0 0
          }
        }
      }
    }
  }
  JOINT Spine
  {
    OFFSET 0.165834 0.87714 6.61349
    CHANNELS 3 Zrotation Xrotation Yrotation
    JOINT Spine1
    {
      OFFSET 7.38963 1.71661e-005 0
      CHANNELS 3 Zrotation Xrotation Yrotation
      JOINT Spine2
      {
        OFFSET 11.9445 1.14441e-005 0
        CHANNELS 3 Zrotation Xrotation Yrotation
        JOINT Spine3
        {
          OFFSET 14.7254 4.19617e-005 0
          CHANNELS 3 Zrotation Xrotation Yrotation
          JOINT Spine4
          {
            OFFSET 10.9679 0 0
            CHANNELS 3 Zrotation Xrotation Yrotation
            JOINT RightShoulder
            {
              OFFSET 2.46616 -1.6653 3.69651
              CHANNELS 3 Zrotation Xrotation Yrotation
              JOINT RightArm
              {
                OFFSET 13.0012 0 0
                CHANNELS 3 Zrotation Xrotation Yrotation
                JOINT RightForeArm
                {
                  OFFSET 28.7848 1.62311e-005 0
                  CHANNELS 3 Zrotation Xrotation Yrotation
                  JOINT RightHand
                  {
                    OFFSET 26.5688 1.62095e-005 0
                    CHANNELS 3 Zrotation Xrotation Yrotation
                    End Site
                    {
                      OFFSET 0 0 0
                    }
                  }
                }
              }
            }
            JOINT LeftShoulder
            {
              OFFSET 2.38034 -1.29275 -3.7523
              CHANNELS 3 Zrotation Xrotation Yrotation
              JOINT LeftArm
              {
                OFFSET 16.3182 6.07031e-005 0
                CHANNELS 3 Zrotation Xrotation Yrotation
                JOINT LeftForeArm
                {
                  OFFSET 27.0901 0 0
                  CHANNELS 3 Zrotation Xrotation Yrotation
                  JOINT LeftHand
                  {
                    OFFSET 24.5451 1.51738e-005 0
                    CHANNELS 3 Zrotation Xrotation Yrotation
                    End Site
                    {
                      OFFSET 0 0 0
                    }
                  }
                }
              }
            }
            JOINT Neck
            {
              OFFSET 5.0226 -0.0266342 0
              CHANNELS 3 Zrotation Xrotation Yrotation
              JOINT Head
              {
                OFFSET 6.69364 2.86102e-005 0
                CHANNELS 3 Zrotation Xrotation Yrotation
                End Site
                {
                  OFFSET 0 0 0
                }
              }
            }
          }
        }
      }
    }
  }
}
MOTION
Frames:	7
Frame Time:	0.0416667
-59.6458 99.0874 49.2392 -98.7761 -87.9439 -98.1924 -174.452 5.83052 92.5779 -11.8191 9.2208 -0.727661 63.006 1.53368 1.19409 29.0476 0.212316 0.0677739 171.81 3.89431 89.5298 -10.2251 -8.25793 -1.99098 63.1741 -1.62005 -0.892142 29.1172 -0.196068 -1.57118 -0.0994357 6.9971 -90.0816 12.8795 -0.236493 -0.134627 1.20858 -0.242193 -0.124086 -21.3266 -0.185097 -0.199477 -1.31399 -0.185108 -0.199484 91.8021 -39.3963 -100.071 35.1041 -12.3223 4.85941 -6.31744 -9.50772 -40.0891 -6.27816 -0.466773 3.05836 -96.8551 -49.5049 68.9391 -23.4034 10.4861 6.24726 6.52113 14.4838 -36.2639 9.91955 0.748608 3.41102 9.28936 2.24243 3.9921 -13.2183 1.82718 -5.11946 
-59.6034 99.0298 48.8715 -91.0292 -87.7457 -90.5493 -174.512 6.07208 92.443 -11.2896 8.23758 -0.77848 62.4623 1.15847 0.965066 30.2925 0.688344 -1.84463 171.65 4.75729 89.3537 -10.7757 -8.61049 -1.78319 63.4021 -1.71854 -0.953579 29.5022 -0.364839 -2.80186 -0.0963797 7.07669 -90.0425 12.7205 -0.211677 -0.0600006 1.04953 -0.214118 -0.0506282 -21.4857 -0.183858 -0.120844 -1.47307 -0.183863 -0.120851 91.5635 -39.7082 -100.405 34.978 -11.9935 5.76035 -5.82164 -9.16702 -38.9449 -6.80324 -0.469772 2.38738 -96.5646 -48.9892 69.1985 -24.0996 10.5868 7.80453 6.86198 14.5017 -37.1475 11.7047 0.86587 3.36504 2.9334 0.664947 2.68356 -1.67636 0.185878 -0.434653 
-59.5212 99.0583 48.4862 -78.9545 -87.5658 -78.5728 -174.676 7.02158 92.2611 -11.6039 8.56758 -0.868574 62.1637 1.20307 1.72741 29.6033 0.593928 -0.043629 171.795 5.4958 89.3378 -10.7413 -8.8934 -1.83198 63.1192 -1.58381 -0.876674 31.9729 -0.704433 -4.43638 -0.112279 7.1484 -90.0605 12.577 -0.25182 -0.09147 0.906043 -0.255613 -0.0803051 -21.6292 -0.212696 -0.162931 -1.61659 -0.212691 -0.162925 91.5866 -39.5552 -100.405 34.7741 -12.1119 7.14767 -5.2962 -8.9531 -38.6828 -6.84956 -0.465987 2.30443 -96.269 -48.8131 69.5774 -25.1984 9.86595 10.0028 7.03719 13.8103 -38.0678 11.3002 0.795879 3.01423 2.70226 0.922951 2.77285 1.55207 0.445171 -0.305229 
-59.4553 99.0117 48.1424 -64.9175 -86.8476 -64.5068 -174.944 8.12473 92.1357 -11.75 7.80698 -0.752088 62.3181 1.144 1.59712 30.0562 1.30235 1.50553 172.303 6.52198 89.6043 -10.5223 -8.99851 -2.05683 62.8185 -1.48857 -0.816264 34.4861 -0.969815 -5.13768 -0.0604366 7.20277 -90.0564 12.4682 -0.146894 -0.0957711 0.797268 -0.15096 -0.0892211 -21.7379 -0.111316 -0.135486 -1.72525 -0.111311 -0.135488 91.3739 -39.9845 -100.661 34.5483 -11.7996 8.62999 -4.94029 -8.68807 -38.382 -6.65219 -0.461134 2.49724 -96.1941 -48.538 69.5997 -26.1119 9.66898 12.1805 7.76529 14.4716 -38.8559 11.089 0.817484 3.31572 1.74732 0.780475 2.23423 7.62728 0.46298 0.439457 
-59.3314 98.9662 47.9017 -49.0332 -86.379 -48.5935 -175.003 9.38855 92.1261 -11.8454 7.90445 -0.940959 62.4379 1.14815 1.59766 32.5831 3.52471 2.52422 172.537 7.44129 89.7329 -9.96535 -8.58731 -2.04836 62.6706 -1.49487 -0.813474 35.3753 -1.06364 -5.35127 -0.0711937 7.24623 -90.0751 12.3813 -0.177108 -0.129842 0.710366 -0.182648 -0.121926 -21.8248 -0.1299 -0.177065 -1.81214 -0.1299 -0.177075 91.1267 -40.2342 -101.021 34.5818 -11.3286 9.61475 -5.36196 -9.13031 -37.852 -7.3021 -0.524112 2.86667 -96.2936 -48.6262 69.4808 -26.7947 9.51598 13.7589 7.68017 14.3905 -38.8337 10.3627 0.658956 2.33861 0.539941 0.759329 2.77696 15.9963 0.296633 -0.247013 
-59.2631 98.8864 47.689 -39.2464 -85.6248 -38.8059 -175.112 10.2792 92.1514 -11.4455 7.55153 -0.993043 62.4714 0.924593 0.831052 34.2579 5.3051 4.02993 172.7 8.6595 89.8386 -10.1307 -8.21544 -1.97074 63.0882 -1.64972 -0.905431 36.877 -1.14818 -5.27483 -0.0291951 7.27368 -90.0771 12.3264 -0.094547 -0.143227 0.655482 -0.100762 -0.13894 -21.8796 -0.0471381 -0.165027 -1.86696 -0.0471329 -0.165026 91.0596 -40.3983 -101.092 34.6018 -11.5592 10.3259 -4.05344 -8.1042 -36.4113 -7.08688 -0.48644 2.50676 -96.2117 -48.342 69.5105 -27.4626 9.72998 14.3354 7.4971 14.5802 -38.579 11.4 0.758569 2.63842 1.10893 0.497538 2.92001 21.2822 -0.0472768 -0.414078 
-59.1796 98.8773 47.7378 -34.9952 -85.0955 -34.5036 -175.077 10.963 92.1481 -11.624 7.62088 -1.17596 62.9688 1.34855 1.03706 33.7775 5.27284 5.19412 172.793 9.16644 89.909 -9.9701 -8.11592 -1.94374 63.1304 -1.67987 -0.921288 37.528 -1.24077 -5.5223 0.00361515 7.28062 -90.0734 12.3126 -0.0275709 -0.143368 0.641652 -0.0338499 -0.142019 -21.8934 0.0167959 -0.145016 -1.88079 0.0167884 -0.145029 90.5368 -40.8644 -101.859 34.3147 -11.7713 10.7637 -3.49067 -8.00211 -35.7516 -7.1112 -0.488857 2.5404 -96.4728 -48.5228 69.182 -27.5295 9.72622 14.1788 5.97453 13.2371 -37.0997 12.2775 0.941892 3.65499 1.72979 0.416781 2.51336 23.7037 -0.0485002 -0.227897 
